<mxfile host="app.diagrams.net" modified="2022-10-06T08:13:06.179Z" agent="5.0 (Windows NT 10.0; Win64; x64) AppleWebKit/537.36 (KHTML, like Gecko) Chrome/105.0.0.0 Safari/537.36" etag="sPJE0CceKNX0tGdojuba" version="20.3.7" type="github">
  <diagram id="t7c51K8jNyYHamM1bauJ" name="Page-1">
    <mxGraphModel dx="782" dy="468" grid="1" gridSize="10" guides="1" tooltips="1" connect="1" arrows="1" fold="1" page="1" pageScale="1" pageWidth="850" pageHeight="1100" math="0" shadow="0">
      <root>
        <mxCell id="0" />
        <mxCell id="1" parent="0" />
        <mxCell id="hd6QThA2WulpWal5evEd-1" value="&lt;div style=&quot;background-repeat: no-repeat; box-sizing: border-box; font-family: Montserrat; border-bottom: 2px solid rgb(54, 59, 61); padding-bottom: 30px; color: rgba(232, 230, 227, 0.85); font-size: 14px; font-style: normal; font-variant-ligatures: normal; font-variant-caps: normal; font-weight: 400; letter-spacing: normal; orphans: 2; text-align: start; text-indent: 0px; text-transform: none; widows: 2; word-spacing: 0px; -webkit-text-stroke-width: 0px; background-color: rgb(26, 28, 29); text-decoration-thickness: initial; text-decoration-style: initial; text-decoration-color: initial;&quot; class=&quot;checkpoint-objective&quot;&gt;&lt;div style=&quot;background-repeat: no-repeat; box-sizing: border-box; font-family: inherit !important; font-size: 16px; font-weight: 600; line-height: 1.2; color: rgb(219, 216, 212); margin-bottom: 30px;&quot; class=&quot;title&quot;&gt;&lt;span style=&quot;background-repeat: no-repeat; box-sizing: border-box; font-family: inherit !important;&quot;&gt;Objective&lt;/span&gt;&lt;/div&gt;&lt;div style=&quot;background-repeat: no-repeat; box-sizing: border-box; font-family: inherit !important; font-size: 14px; line-height: 1.39; color: rgb(219, 216, 212);&quot; class=&quot;checkpoint-content&quot;&gt;&lt;p style=&quot;background-repeat: no-repeat; box-sizing: border-box; margin-top: 0px; margin-bottom: 1em; font-family: inherit !important;&quot;&gt;In this checkpoint, we have the following relational model created. Now we must insert data into the different tables using DML language:&lt;/p&gt;&lt;p style=&quot;background-repeat: no-repeat; box-sizing: border-box; margin-top: 0px; margin-bottom: 1em; font-family: inherit !important;&quot;&gt;&lt;/p&gt;&lt;div style=&quot;background-repeat: no-repeat; box-sizing: border-box; font-family: inherit !important; display: flex; justify-content: center; align-items: center;&quot;&gt;&lt;img style=&quot;background-repeat: no-repeat; box-sizing: border-box; vertical-align: middle; border-style: none; font-family: inherit !important; max-width: 650px;&quot; src=&quot;https://i.imgur.com/q25t2MI.png&quot;&gt;&lt;/div&gt;&lt;p style=&quot;background-repeat: no-repeat; box-sizing: border-box; margin-top: 0px; margin-bottom: 1em; font-family: inherit !important;&quot;&gt;&lt;/p&gt;&lt;/div&gt;&lt;/div&gt;&lt;div style=&quot;background-repeat: no-repeat; box-sizing: border-box; font-family: Montserrat; margin-top: 30px; color: rgba(232, 230, 227, 0.85); font-size: 14px; font-style: normal; font-variant-ligatures: normal; font-variant-caps: normal; font-weight: 400; letter-spacing: normal; orphans: 2; text-align: start; text-indent: 0px; text-transform: none; widows: 2; word-spacing: 0px; -webkit-text-stroke-width: 0px; background-color: rgb(26, 28, 29); text-decoration-thickness: initial; text-decoration-style: initial; text-decoration-color: initial;&quot; class=&quot;checkpoint-instructions&quot;&gt;&lt;div style=&quot;background-repeat: no-repeat; box-sizing: border-box; font-family: inherit !important; font-size: 16px; font-weight: 600; line-height: 1.2; color: rgb(219, 216, 212); margin-bottom: 30px;&quot; class=&quot;title&quot;&gt;&lt;span style=&quot;background-repeat: no-repeat; box-sizing: border-box; font-family: inherit !important;&quot;&gt;Instructions&lt;/span&gt;&lt;/div&gt;&lt;div style=&quot;background-repeat: no-repeat; box-sizing: border-box; font-family: inherit !important; font-size: 14px; line-height: 1.39; color: rgb(219, 216, 212);&quot; class=&quot;checkpoint-content&quot;&gt;&lt;p style=&quot;background-repeat: no-repeat; box-sizing: border-box; margin-top: 0px; margin-bottom: 1em; font-family: inherit !important;&quot;&gt;Write SQL commands to insert the following rows into the corresponding tables&lt;/p&gt;&lt;div style=&quot;background-repeat: no-repeat; box-sizing: border-box; font-family: inherit !important; display: flex; justify-content: center; align-items: center;&quot;&gt;&lt;img style=&quot;background-repeat: no-repeat; box-sizing: border-box; vertical-align: middle; border-style: none; font-family: inherit !important; max-width: 650px;&quot; src=&quot;https://i.imgur.com/DcLUzM5.png&quot;&gt;&lt;/div&gt;&lt;/div&gt;&lt;/div&gt;" style="text;whiteSpace=wrap;html=1;" vertex="1" parent="1">
          <mxGeometry x="200" y="30" width="560" height="280" as="geometry" />
        </mxCell>
        <mxCell id="hd6QThA2WulpWal5evEd-2" value="&lt;div&gt;INSERT into gmc customer (customer_id,&lt;/div&gt;&lt;div&gt;customer_name customer_tel) values (&lt;/div&gt;&lt;div&gt;&#39;ALI&#39;,&lt;/div&gt;&lt;div&gt;71321009);&lt;/div&gt;" style="text;html=1;strokeColor=none;fillColor=none;align=center;verticalAlign=middle;whiteSpace=wrap;rounded=0;" vertex="1" parent="1">
          <mxGeometry x="920" y="50" width="290" height="90" as="geometry" />
        </mxCell>
        <mxCell id="hd6QThA2WulpWal5evEd-3" value="&lt;div&gt;INSERT into gmc customer (customer_id,&lt;/div&gt;&lt;div&gt;customer_name, customer_tel) values (&lt;/div&gt;&lt;div&gt;&#39;CO2&#39;,&lt;/div&gt;&lt;div&gt;&#39;ASAMA&#39;,&lt;/div&gt;&lt;div&gt;77345823);&lt;/div&gt;" style="text;html=1;strokeColor=none;fillColor=none;align=center;verticalAlign=middle;whiteSpace=wrap;rounded=0;" vertex="1" parent="1">
          <mxGeometry x="925" y="150" width="280" height="90" as="geometry" />
        </mxCell>
        <mxCell id="hd6QThA2WulpWal5evEd-4" value="&lt;div&gt;INSERT into Product(Product id,&lt;/div&gt;&lt;div&gt;Product_name, Category, Price) values (&lt;/div&gt;&lt;div&gt;&#39;PO1,&lt;/div&gt;&lt;div&gt;&#39;SAMSUNG GALAXY $20&#39;,&lt;/div&gt;&lt;div&gt;&#39;Smartphone&#39;,&lt;/div&gt;&lt;div&gt;3299);&lt;/div&gt;&lt;div&gt;&lt;br&gt;&lt;/div&gt;" style="text;html=1;strokeColor=none;fillColor=none;align=center;verticalAlign=middle;whiteSpace=wrap;rounded=0;" vertex="1" parent="1">
          <mxGeometry x="970" y="270" width="190" height="120" as="geometry" />
        </mxCell>
        <mxCell id="hd6QThA2WulpWal5evEd-5" value="&lt;div&gt;INSERT into Product(Product_id,&lt;/div&gt;&lt;div&gt;Product_name, Category, Price) values (&lt;/div&gt;&lt;div&gt;&#39;P02&#39;,&lt;/div&gt;&lt;div&gt;&#39;ASUS Notebook&#39;,&lt;/div&gt;&lt;div&gt;&#39;PC&#39;,&lt;/div&gt;&lt;div&gt;4599);&lt;/div&gt;" style="text;html=1;strokeColor=none;fillColor=none;align=center;verticalAlign=middle;whiteSpace=wrap;rounded=0;" vertex="1" parent="1">
          <mxGeometry x="970" y="440" width="190" height="90" as="geometry" />
        </mxCell>
        <mxCell id="hd6QThA2WulpWal5evEd-6" value="&lt;div&gt;NSERT into Orders(Product_id, Customer_id,&lt;/div&gt;&lt;div&gt;OrderDate Quantity, Total_amount) values (&lt;/div&gt;&lt;div&gt;&#39;PO1&#39;,&lt;/div&gt;&lt;div&gt;&#39;CO1&#39;,&lt;/div&gt;&lt;div&gt;Null&lt;/div&gt;&lt;div&gt;2,&lt;/div&gt;&lt;div&gt;9198);&lt;/div&gt;" style="text;html=1;strokeColor=none;fillColor=none;align=center;verticalAlign=middle;whiteSpace=wrap;rounded=0;" vertex="1" parent="1">
          <mxGeometry x="970" y="600" width="190" height="110" as="geometry" />
        </mxCell>
        <mxCell id="hd6QThA2WulpWal5evEd-7" value="&lt;div&gt;INSERT into Orders(Product_id, Customer_id,&lt;/div&gt;&lt;div&gt;OrderDate, Quantity, Total_amount) values (&lt;/div&gt;&lt;div&gt;&#39;P02&#39;,&lt;/div&gt;&lt;div&gt;&#39;CO2&#39;,&lt;/div&gt;&lt;div&gt;28/05/2020,&lt;/div&gt;&lt;div&gt;1,&lt;/div&gt;&lt;div&gt;3299);&lt;/div&gt;" style="text;html=1;strokeColor=none;fillColor=none;align=center;verticalAlign=middle;whiteSpace=wrap;rounded=0;" vertex="1" parent="1">
          <mxGeometry x="950" y="760" width="250" height="160" as="geometry" />
        </mxCell>
      </root>
    </mxGraphModel>
  </diagram>
</mxfile>
